<?xml version="1.0" encoding="UTF-8" standalone="no"?>
<svg width="256px" height="256px" viewBox="0 0 256 256" version="1.1" xmlns="http://www.w3.org/2000/svg" xmlns:xlink="http://www.w3.org/1999/xlink" preserveAspectRatio="xMidYMid">
    <g>
        <path d="M128,0 C57.308,0 0,57.308 0,128 C0,198.692 57.308,256 128,256 C198.692,256 256,198.692 256,128 C256,57.308 198.692,0 128,0 Z" fill="#FFFFFF"></path>
        <g transform="translate(50.000000, 76.000000)" fill="#F7A80D">
            <path d="M45.1397,26.3509 C45.1397,27.8879 45.2807,29.0819 45.0727,30.1629 C44.7297,31.8779 42.9797,32.0669 42.1597,30.7329 C41.5617,29.8089 41.4027,28.6589 41.2627,27.5149 C40.4417,21.1349 40.5277,14.7369 41.5447,8.3939 C41.8687,6.5579 42.5217,4.7409 44.4497,3.9119 C46.1657,3.1749 47.2457,4.3689 47.2817,6.2139 C47.3247,8.4379 47.0357,10.6789 46.9347,12.9169 C46.7137,17.4049 46.5107,21.8949 45.1397,26.3509 L45.1397,26.3509 Z"></path>
            <path d="M50.6866,38.7913 C45.8936,39.6203 41.4466,40.0993 36.8416,39.9013 C34.9676,39.8203 33.0306,39.4503 31.3326,38.4783 C27.8616,36.5143 27.8616,32.8903 31.2546,30.8203 C33.5986,29.3903 36.1736,28.8113 38.8226,28.5483 C43.1106,28.1143 47.3046,28.8203 51.1396,30.7963 C53.2096,31.8953 53.2106,33.4233 51.1696,34.5923 C49.5726,35.5113 49.3936,36.7913 49.9866,38.3553 C50.2216,38.5653 50.4536,38.6783 50.6866,38.7913 L50.6866,38.7913 Z"></path>
            <path d="M80.9927,26.3509 C80.9927,27.8879 81.1327,29.0819 80.9247,30.1629 C80.5817,31.8779 78.8317,32.0669 78.0117,30.7329 C77.4137,29.8089 77.2547,28.6589 77.1137,27.5149 C76.2937,21.1349 76.3797,14.7369 77.3967,8.3939 C77.7217,6.5579 78.3737,4.7409 80.3017,3.9119 C82.0187,3.1749 83.0987,4.3689 83.1337,6.2139 C83.1777,8.4379 82.8877,10.6789 82.7867,12.9169 C82.5657,17.4049 82.3637,21.8949 80.9927,26.3509 L80.9927,26.3509 Z"></path>
            <path d="M86.5392,38.7913 C81.7462,39.6203 77.2992,40.0993 72.6952,39.9013 C70.8202,39.8203 68.8832,39.4503 67.1852,38.4783 C63.7142,36.5143 63.7142,32.8903 67.1072,30.8203 C69.4522,29.3903 72.0262,28.8113 74.6762,28.5483 C78.9632,28.1143 83.1572,28.8203 86.9922,30.7963 C89.0622,31.8953 89.0632,33.4233 87.0232,34.5923 C85.4252,35.5113 85.2472,36.7913 85.8402,38.3553 C86.0742,38.5653 86.3062,38.6783 86.5392,38.7913 L86.5392,38.7913 Z"></path>
            <path d="M16.2109,58.9813 C11.8419,57.6063 7.5889,56.0713 3.8419,53.6123 C1.7969,52.2213 0.0939,50.5293 0.0029,47.8623 C-0.0441,46.5193 0.2999,45.6573 1.6069,45.1793 C2.8139,44.7423 3.6639,45.3303 4.3939,46.2863 C8.5139,51.6223 14.1939,54.3553 20.5409,55.9533 C25.9909,57.3073 31.5439,57.8883 37.1319,57.8143 C45.9499,57.6973 54.5899,56.4823 62.6629,52.6943 C68.2079,50.0143 73.0849,46.3753 75.9249,40.6753 C77.2139,38.0693 77.7219,35.3083 76.0509,32.6993 C74.4849,30.2623 71.8879,29.0343 69.1209,28.1103 C68.0249,27.7253 66.8669,27.5063 65.7359,27.1893 C65.3169,27.0663 64.7159,26.6693 64.6029,26.2533 C64.4669,25.7593 64.6379,24.9933 64.9639,24.5903 C65.3459,24.1193 66.0949,23.9073 66.7289,23.7463 C70.4769,22.7853 74.1529,23.2883 77.5039,25.2493 C83.3959,28.5883 85.9249,34.0063 84.9399,40.5983 C84.4829,43.6743 83.0149,46.3403 81.1759,48.8273 C77.4119,53.9133 72.1989,57.0483 66.3309,59.3713 C57.2469,62.8593 47.7239,63.7843 38.0979,63.7063 C30.4289,63.6433 22.9849,62.3233 16.2109,58.9813 L16.2109,58.9813 Z"></path>
            <path d="M148.1582,45.6582 C148.0402,54.9212 143.8702,61.4912 135.4182,64.9092 C129.5722,67.2992 123.4352,67.7732 117.2352,66.9632 C111.1152,66.1642 105.9712,63.2802 103.2752,57.4092 C99.0432,48.2932 100.3502,36.9762 106.3542,28.7232 C110.1562,23.4272 115.3512,20.5252 121.6712,19.4152 C127.7692,18.3412 133.7192,19.0342 139.0142,22.4642 C146.0532,27.0642 148.7512,34.0892 148.1582,45.6582 L148.1582,45.6582 Z M139.5192,44.5532 C139.5632,43.2662 139.6532,42.0762 139.5372,40.9022 C139.0352,36.1222 137.5792,31.8222 133.4792,28.8932 C129.7432,26.2092 125.6032,25.4882 121.3272,26.6392 C116.3782,27.9672 113.0452,31.0682 111.0832,35.7922 C109.6232,39.3312 109.1362,43.0442 109.3662,46.8482 C109.6112,50.8792 110.6082,54.6772 113.5242,57.8722 C117.2822,61.9532 122.0422,62.9942 127.3362,61.6952 C132.1502,60.5062 135.7842,57.6522 137.8172,53.1492 C139.1472,50.2022 139.4712,47.0342 139.5192,44.5532 L139.5192,44.5532 Z"></path>
            <path d="M152.5225,51.8535 C152.4485,47.3525 152.4025,42.8505 152.3835,38.3495 C152.3765,36.9365 152.4815,35.5225 152.5455,34.1095 C152.5865,33.2135 152.3455,32.7245 151.3445,32.7315 C150.2275,32.7395 150.1685,32.0245 150.1705,31.1675 C150.1765,28.7125 151.0625,28.0935 153.2895,28.8085 C154.3385,29.1575 154.5365,28.8335 154.9645,27.9345 C157.2835,23.0915 159.6585,18.2785 161.9795,13.4415 C162.4835,12.3965 162.9415,11.3295 163.4585,10.2975 C163.7535,9.7055 164.1325,9.1575 164.5565,8.6885 C165.4325,7.7245 166.7595,7.8825 167.3235,9.0535 C167.7035,9.8445 167.6865,10.7625 167.3435,11.5895 C165.9645,15.0455 164.4975,18.4645 163.0795,21.9015 C161.8525,24.8645 160.6415,27.8335 159.3835,30.8385 C159.9785,30.8555 160.4235,30.9105 160.8675,30.9095 C162.9315,30.9035 165.1515,29.8315 166.9655,31.1075 C168.0955,31.9075 168.1005,34.7125 167.0125,35.5195 C166.3875,35.9905 165.5125,36.3225 164.7165,36.3565 C163.1805,36.4215 161.6365,36.3005 160.0255,36.3005 C159.9455,36.5295 159.8465,36.6775 159.8475,36.8255 C159.8595,41.6605 159.8655,46.4955 159.8965,51.3295 C159.9025,52.2895 159.8965,53.2725 160.1225,54.1985 C160.4425,55.5255 161.3015,56.5345 162.6785,56.8725 C163.6265,57.1095 164.6505,57.0915 165.6275,57.1285 C166.4035,57.1575 166.8425,57.5605 166.8775,58.3915 C166.9125,59.2155 166.4865,59.6435 165.7145,59.6665 C160.3765,59.8175 155.0385,59.7675 149.7055,59.6835 C148.7595,59.6685 148.3095,59.2455 148.3125,58.4125 C148.3155,57.5805 148.7525,57.1445 149.6975,57.1235 C151.0045,57.0935 152.3365,57.1655 153.5975,56.8455 C155.8935,56.2955 156.7275,54.6205 156.4235,51.9915 C156.3845,51.6105 156.4575,51.2145 156.4575,50.8245 C155.1445,51.0625 154.4785,52.1245 153.3945,52.6975 C151.9715,53.4525 150.5505,53.5625 149.0925,52.8945 C146.9655,51.9195 146.1335,49.8825 146.5935,47.3975 C147.1215,44.5545 148.4855,42.4545 151.2735,41.6305 C153.4095,40.9915 155.1655,41.5125 156.4575,43.2525 C156.4575,42.8705 156.4905,42.5575 156.4515,42.2525 C156.3595,41.4995 156.2425,40.7515 156.1175,40.0055 C155.7115,37.6625 153.5615,36.8185 151.4485,37.8875 C151.0215,38.1135 150.7025,38.5575 150.3255,38.8385 C150.0125,39.0745 149.6825,39.2775 149.0055,39.6175 C149.0055,38.0645 149.0585,36.8965 149.0005,35.7355 C148.9485,34.6935 149.3685,34.0325 150.2975,33.6735 C152.5855,32.7745 154.8925,33.3255 157.1945,33.6235 C159.3155,33.8945 160.2845,35.4365 160.5545,37.4505 C160.7255,38.7385 160.9205,40.0995 160.5825,41.3205 C159.7675,44.1365 159.9025,46.9705 159.8995,49.7915 C159.8995,50.4285 159.8985,51.0655 159.8995,51.7025 C159.8995,51.7465 159.9195,51.7895 159.9385,51.8535 L152.5225,51.8535 Z M156.4055,47.8435 C156.3485,46.9855 156.2965,46.3665 156.2145,45.7535 C155.9275,43.4485 153.9095,42.1495 151.5625,42.8855 C149.7335,43.4615 148.7225,44.6975 148.3555,46.5385 C147.8945,48.9015 149.3615,50.6755 151.7875,50.4015 C152.6165,50.3055 153.4685,50.0465 154.2195,49.7065 C155.0355,49.3385 155.7285,48.6905 156.4055,47.8435 L156.4055,47.8435 Z"></path>
        </g>
    </g>
</svg> 