<?xml version="1.0" encoding="UTF-8" standalone="no"?>
<svg width="256px" height="256px" viewBox="0 0 256 256" version="1.1" xmlns="http://www.w3.org/2000/svg" xmlns:xlink="http://www.w3.org/1999/xlink" preserveAspectRatio="xMidYMid">
    <g>
        <path d="M128,0 C57.308,0 0,57.308 0,128 C0,198.692 57.308,256 128,256 C198.692,256 256,198.692 256,128 C256,57.308 198.692,0 128,0 Z" fill="#FFFFFF"></path>
        <path d="M91.5839419,61 L37,179.4838 L99.138,179.4838 L156.37,61 C156.37,61 111.093,106.11 91.5839419,61 Z" fill="#0072C6"></path>
        <path d="M149.927,179.4838 L220,179.4838 L168.541,76.406 C168.541,76.406 163.928,65.557 154.563,85.185 C145.198,104.813 110.321,174.446 110.321,174.446 L149.927,179.4838 Z" fill="#0072C6"></path>
    </g>
</svg> 