<?xml version="1.0" encoding="UTF-8" standalone="no"?>
<svg width="256px" height="256px" viewBox="0 0 256 256" version="1.1" xmlns="http://www.w3.org/2000/svg" xmlns:xlink="http://www.w3.org/1999/xlink" preserveAspectRatio="xMidYMid">
    <g>
        <path d="M128,0 C57.4146,0 0,57.4146 0,128 C0,198.5854 57.4146,256 128,256 C198.5854,256 256,198.5854 256,128 C256,57.4146 198.5854,0 128,0 Z" fill="#00599C"></path>
        <path d="M230.2,121.6 C228.7,119.1 226.3,117.4 223,116.5 L196.4,107.9 L169.8,99.3 C166.5,98.4 162.2,98.4 159,99.3 C155.7,100.2 153.3,101.9 151.8,104.4 L146.4,113.7 L140.9,123 C139.4,125.5 139.4,128.9 140.9,131.4 L146.4,140.7 L151.8,150 C153.3,152.5 155.7,154.2 159,155.1 C162.3,156 166.6,156 169.8,155.1 L196.4,146.5 L223,137.9 C226.3,137 228.7,135.3 230.2,132.8 C231.7,130.3 231.7,126.9 230.2,124.4 L224.8,115.1 L230.2,121.6 Z" fill="#FFFFFF"></path>
        <path d="M194.5,126.9 L194.5,142.3 L187.2,142.3 L187.2,126.9 L171.8,126.9 L171.8,119.6 L187.2,119.6 L187.2,104.2 L194.5,104.2 L194.5,119.6 L209.9,119.6 L209.9,126.9 L194.5,126.9 Z" fill="#00599C"></path>
        <path d="M145.3,126.9 L145.3,142.3 L138,142.3 L138,126.9 L122.6,126.9 L122.6,119.6 L138,119.6 L138,104.2 L145.3,104.2 L145.3,119.6 L160.7,119.6 L160.7,126.9 L145.3,126.9 Z" fill="#00599C"></path>
        <path d="M103.5,109.9 C105,108.4 106.7,107.3 108.7,106.4 C110.6,105.5 112.8,105.1 115,105.1 C117.8,105.1 120.2,105.7 122.3,106.9 C124.4,108.1 126,109.7 127.2,111.9 C128.3,114 128.9,116.6 128.9,119.5 C128.9,122.4 128.3,125 127.2,127.2 C126,129.4 124.4,131 122.3,132.2 C120.2,133.4 117.7,134 115,134 C112.8,134 110.7,133.6 108.7,132.7 C106.8,131.8 105.1,130.7 103.6,129.2 L103.6,147.5 L96.7,147.5 L96.7,105.8 L103.6,105.8 L103.6,109.9 L103.5,109.9 Z M121.8,119.6 C121.8,117.9 121.5,116.4 120.8,115.2 C120.1,113.9 119.2,112.9 118,112.3 C116.8,111.6 115.5,111.3 114,111.3 C112.5,111.3 111.2,111.6 110,112.3 C108.8,112.9 107.8,113.9 107.1,115.2 C106.4,116.5 106.1,118 106.1,119.6 C106.1,121.2 106.4,122.7 107.1,124 C107.8,125.3 108.8,126.3 110,127 C111.2,127.7 112.5,128 114,128 C115.5,128 116.8,127.7 118,127 C119.2,126.3 120.1,125.3 120.8,124 C121.5,122.7 121.8,121.2 121.8,119.6 Z" fill="#FFFFFF"></path>
        <path d="M91.1,115.2 C89.9,113.9 88.4,113 86.4,112.3 C84.5,111.6 82.3,111.3 79.9,111.3 C77.7,111.3 75.7,111.6 73.8,112.1 C71.9,112.6 70.5,113.4 69.5,114.5 C68.5,115.5 68,116.7 68,118 C68,119 68.2,119.8 68.7,120.6 C69.2,121.3 69.8,121.9 70.6,122.4 C71.4,122.9 72.3,123.3 73.3,123.7 C74.3,124 75.3,124.3 76.4,124.5 L82.3,126 C84.1,126.4 86,126.9 87.8,127.5 C89.6,128.1 91.3,128.9 92.9,129.9 C94.5,130.9 95.7,132.2 96.7,133.8 C97.7,135.4 98.2,137.3 98.2,139.6 C98.2,142.1 97.4,144.3 95.9,146.2 C94.4,148.1 92.2,149.5 89.3,150.6 C86.4,151.7 83,152.2 79,152.2 C75.1,152.2 71.6,151.6 68.5,150.4 C65.4,149.2 62.9,147.5 61.1,145.3 L65.8,140.2 C67.1,141.9 68.9,143.2 71.3,144.2 C73.7,145.2 76.3,145.6 79.1,145.6 C81.4,145.6 83.5,145.3 85.5,144.7 C87.4,144.1 89,143.2 90.2,142 C91.4,140.8 92,139.3 92,137.6 C92,136.4 91.7,135.3 91,134.5 C90.3,133.6 89.5,132.9 88.4,132.3 C87.3,131.7 86.1,131.2 84.8,130.8 C83.5,130.4 82.1,130.1 80.8,129.8 L74.8,128.2 C70.6,127 67.3,125.2 64.9,122.9 C62.5,120.6 61.3,117.6 61.3,114 C61.3,111.5 62,109.3 63.5,107.4 C65,105.5 67.1,104 69.8,102.9 C72.5,101.8 75.6,101.3 79.1,101.3 C82.6,101.3 85.8,101.9 88.5,103 C91.2,104.1 93.4,105.7 95.1,107.7 L90.2,112.8 C89.1,113.5 91.1,115.2 91.1,115.2 Z" fill="#FFFFFF"></path>
    </g>
</svg> 