<?xml version="1.0" encoding="UTF-8" standalone="no"?>
<svg width="256px" height="256px" viewBox="0 0 256 256" version="1.1" xmlns="http://www.w3.org/2000/svg" xmlns:xlink="http://www.w3.org/1999/xlink" preserveAspectRatio="xMidYMid">
	<g>
		<path d="M255.569,84.72 C255.567,79.89 254.534,75.622 252.445,71.959 C250.393,68.357 247.32,65.338 243.198,62.951 C209.173,43.332 175.115,23.773 141.101,4.134 C131.931,-1.16 123.04,-0.967 113.938,4.403 C100.395,12.39 32.59,51.237 12.385,62.94 C4.064,67.757 0.015,75.129 0.013,84.711 C0,124.166 0.013,163.62 0,203.076 C0.002,209.288 1.715,214.514 5.296,219.486 C9.949,225.901 16.035,229.643 24.149,229.658 C57.319,229.731 90.494,229.7 123.663,229.642 C128.732,229.634 133.22,228.026 137.584,224.982 C142.531,221.579 145.918,216.835 148.179,211.829 C148.388,211.472 148.242,210.797 148.323,210.255 C148.338,210.134 148.302,210.026 148.302,209.905 L148.302,91.247 L148.263,91.245 C148.257,85.78 145.442,80.761 140.817,77.615 C136.255,74.513 130.87,73.801 125.708,75.597 L125.624,75.628 L72.147,97.937 L72.147,74.731 L72.147,74.687 C72.172,68.919 69.291,63.622 64.4,60.326 C59.568,57.07 54.262,56.267 49.175,57.43 C48.777,57.512 48.404,57.705 48.05,57.928 C47.625,58.195 47.245,58.546 46.892,58.928 L4.359,82.269 C4.35,82.271 4.345,82.275 4.337,82.279 C1.535,83.785 0.006,86.603 0,89.663 C0.002,94.998 0.001,100.333 0,105.666 L0,146.687 C0.018,156.259 7.755,161.347 17.181,158.903 C45.222,150.991 73.233,143.125 101.274,135.191 C104.602,134.059 107.198,131.556 108.716,128.223 C110.305,124.719 110.183,121.204 108.386,117.641 C106.613,114.166 104.093,111.896 100.328,111.05 L100.325,111.047 C99.598,110.885 98.802,110.908 98.075,111.043 C98.019,111.06 97.963,111.08 97.909,111.099 L40.029,130.578 L40.029,110.573 L40.006,110.566 C39.999,105.897 42.345,101.793 46.272,99.572 L46.293,99.56 L122.238,65.756 C122.262,65.744 122.286,65.732 122.312,65.72 C125.192,64.254 127.25,64.126 129.618,65.213 C132.028,66.316 133.167,68.398 133.175,71.212 L133.175,180.84 L133.169,180.844 C133.062,185.812 130.494,190.015 126.232,192.207 L125.965,192.348 L49.964,226.219 C49.107,226.629 48.128,226.564 47.322,226.026 C46.53,225.495 46.037,224.581 46.02,223.607 L46.02,126.208 L45.998,126.202 C45.951,121.82 42.857,118.022 38.542,116.785 C33.963,115.477 29.159,116.802 26.004,120.473 C25.281,121.308 24.666,122.194 24.162,123.183 C23.911,123.717 23.864,124.312 23.635,124.89 L23.635,205.182 C23.635,205.2 23.633,205.217 23.633,205.234 C23.615,212.525 27.624,219.126 34.218,222.571 C35.202,223.125 36.225,223.616 37.275,224.037 C77.013,242.314 116.761,260.575 156.486,278.875 C164.672,283.217 173.02,282.514 180.545,276.62 C195.688,265.918 210.705,255.059 225.731,244.205 C232.493,239.355 236.762,232.889 238.277,224.828 C238.583,223.178 238.784,221.487 238.784,219.809 C238.784,219.543 238.797,219.279 238.797,219.015 C238.797,163.823 238.797,108.632 238.797,53.439 C238.782,48.756 240.519,44.383 243.993,41.228 C246.58,38.879 249.717,37.393 253.249,36.911 C254.21,36.8 255.208,36.84 256.181,36.871 C256.181,52.822 256.179,68.771 256.181,84.72" fill="#A179DC"></path>
		<path d="M173.101,208.186 L161.935,214.079 L161.935,213.995 C161.935,213.995 161.935,204.565 161.935,195.801 L173.038,189.939 L173.101,208.186" fill="#280068"></path>
		<path d="M201.206,192.127 L190.076,197.998 L190.076,180.243 L201.144,174.373 L201.206,192.127" fill="#390091"></path>
		<path d="M169.207,167.931 L158.04,173.824 L158.04,156.162 L169.144,150.265 L169.207,167.931" fill="#390091"></path>
		<path d="M197.276,151.908 L186.108,157.801 L186.108,139.946 L197.212,134.048 L197.276,151.908" fill="#390091"></path>
		<path d="M165.311,127.707 L154.108,133.568 L154.108,115.917 L165.212,110.021 L165.311,127.707" fill="#390091"></path>
		<path d="M193.378,111.611 L182.211,117.507 L182.211,100.169 L193.313,94.274 L193.378,111.611" fill="#390091"></path>
		<path d="M161.448,87.475 L150.281,93.371 L150.281,75.932 L161.385,70.029 L161.448,87.475" fill="#390091"></path>
		<path d="M189.516,71.413 L178.349,77.307 L178.349,59.436 L189.452,53.541 L189.516,71.413" fill="#390091"></path>
		<path d="M196.236,204.743 L171.153,219.02 L171.153,187.88 L196.167,173.667 L196.236,204.743" fill="#310080"></path>
		<path d="M192.296,164.527 L167.216,178.805 L167.216,147.665 L192.232,133.451 L192.296,164.527" fill="#310080"></path>
		<path d="M188.363,124.376 L163.282,138.651 L163.282,107.512 L188.297,93.299 L188.363,124.376" fill="#310080"></path>
		<path d="M184.43,84.159 L159.416,98.437 L159.416,67.234 L184.366,53.084 L184.43,84.159" fill="#310080"></path>
		<path d="M156.272,221.161 L129.391,206.798 L129.391,167.435 L156.272,181.798 L156.272,221.161" fill="#30009B"></path>
		<path d="M152.341,181.044 L125.391,166.734 L125.391,127.318 L152.341,141.628 L152.341,181.044" fill="#30009B"></path>
		<path d="M148.407,140.929 L121.457,126.616 L121.457,87.257 L148.407,101.57 L148.407,140.929" fill="#30009B"></path>
		<path d="M144.475,100.813 L117.526,86.503 L117.526,47.144 L144.475,61.453 L144.475,100.813" fill="#30009B"></path>
		<path d="M161.925,214.079 L161.925,214.079 L129.391,196.384 L129.391,167.435 L161.925,185.131 L161.925,214.079" fill="#3C0097"></path>
		<path d="M157.992,174.018 L157.992,174.018 L125.391,156.378 L125.391,127.318 L157.992,144.958 L157.992,174.018" fill="#3C0097"></path>
		<path d="M154.06,133.847 L154.06,133.847 L121.457,116.208 L121.457,87.257 L154.06,104.897 L154.06,133.847" fill="#3C0097"></path>
		<path d="M150.125,93.733 L150.125,93.733 L117.526,76.092 L117.526,47.144 L150.125,64.785 L150.125,93.733" fill="#3C0097"></path>
		<path d="M161.935,195.801 L161.935,195.801, L161.935,214.079 L156.272,211.02 L156.272,192.742 L161.935,195.801" fill="#280068"></path>
		<path d="M158.04,156.162 L158.04,156.162 L158.04,173.824 L152.341,170.767 L152.341,153.105 L158.04,156.162" fill="#280068"></path>
		<path d="M154.108,115.917 L154.108,115.917 L154.108,133.568 L148.407,130.453 L148.407,112.803 L154.108,115.917" fill="#280068"></path>
		<path d="M150.281,75.932 L150.281,75.932 L150.281,93.371 L144.475,90.316 L144.475,72.877 L150.281,75.932" fill="#280068"></path>
		<path d="M190.076,180.243 L190.076,180.243 L190.076,197.998 L184.376,194.941 L184.376,177.186 L190.076,180.243" fill="#280068"></path>
		<path d="M186.108,139.946 L186.108,139.946 L186.108,157.801 L180.408,154.744 L180.408,136.889 L186.108,139.946" fill="#280068"></path>
		<path d="M182.211,100.169 L182.211,100.169 L182.211,117.507 L176.514,114.45 L176.514,97.112 L182.211,100.169" fill="#280068"></path>
		<path d="M178.349,59.436 L178.349,59.436 L178.349,77.307 L172.648,74.25 L172.648,56.379 L178.349,59.436" fill="#280068"></path>
		<path d="M125.391,166.734 L125.391,166.734 L112.5,160.239 L112.5,120.823 L125.391,127.318 L125.391,166.734" fill="#140033"></path>
		<path d="M121.457,126.616 L121.457,126.616 L108.5,120.16 L108.5,80.763 L121.457,87.257 L121.457,126.616" fill="#140033"></path>
		<path d="M117.526,86.503 L117.526,86.503 L104.569,80.045 L104.569,40.65 L117.526,47.144 L117.526,86.503" fill="#140033"></path>
	</g>
</svg> 