<svg xmlns="http://www.w3.org/2000/svg" viewBox="0 0 128 128">
  <ellipse fill="#00618A" cx="64" cy="30" rx="50" ry="20"/>
  <path fill="#00618A" d="M114 31v22c0 11.046-22.386 20-50 20S14 64.046 14 53V31c0 11.046 22.386 20 50 20s50-8.954 50-20z"/>
  <path fill="#00618A" d="M114 54v22c0 11.046-22.386 20-50 20S14 87.046 14 76V54c0 11.046 22.386 20 50 20s50-8.954 50-20z"/>
  <ellipse fill="#E48E00" cx="64" cy="30" rx="5" ry="2"/>
  <path fill="#E48E00" d="M64 50c-2.761 0-5-1.343-5-3V32.715c.326.171.65.324 1 .455 1.185.445 2.602.667 4 .667s2.815-.222 4-.667c.35-.131.674-.284 1-.455V47c0 1.657-2.239 3-5 3z"/>
</svg> 