<?xml version="1.0" encoding="UTF-8" standalone="no"?>
<svg width="256px" height="256px" viewBox="0 0 256 256" version="1.1" xmlns="http://www.w3.org/2000/svg" xmlns:xlink="http://www.w3.org/1999/xlink" preserveAspectRatio="xMidYMid">
    <g>
        <path d="M128,0 C198.692,0 256,57.308 256,128 C256,198.692 198.692,256 128,256 C57.308,256 0,198.692 0,128 C0,57.308 57.308,0 128,0 Z" fill="#FFFFFF"></path>
        <path d="M177.44,111.44c-3.53-2.38-12.81-3.39-19.56-1.57-0.36-6.72-3.83-12.4-10.17-17.33l-2.35-1.57-1.57,2.36c-3.07,4.67-4.37,10.89-3.92,16.55c0.36,3.49,1.57,7.4,3.92,10.24-8.79,5.1-16.89,3.94-52.75,3.94H10.02c-0.16,8.1,1.14,23.67,11.05,36.35c1.09,1.4,2.29,2.76,3.6,4.06c8.06,8.06,20.23,13.98,38.42,14h.25c27.78.03,51.54-14.98,66.06-51.27c4.76.08,17.33.85,23.48-11.03.15-.2,1.57-3.15,1.57-3.15l-2.35-1.57z" fill="#1D63ED"></path>
        <path d="M133.25,93.02h-15.57v15.57h15.57V93.02z" fill="#FFFFFF"></path>
        <path d="M113.55,93.02h-15.57v15.57h15.57V93.02z" fill="#FFFFFF"></path>
        <path d="M93.84,93.02h-15.57v15.57h15.57V93.02z" fill="#FFFFFF"></path>
        <path d="M74.14,93.02h-15.57v15.57h15.57V93.02z" fill="#FFFFFF"></path>
        <path d="M54.43,73.31h-15.57v15.57h15.57V73.31z" fill="#FFFFFF"></path>
        <path d="M74.14,73.31h-15.57v15.57h15.57V73.31z" fill="#FFFFFF"></path>
        <path d="M93.84,73.31h-15.57v15.57h15.57V73.31z" fill="#FFFFFF"></path>
        <path d="M113.55,73.31h-15.57v15.57h15.57V73.31z" fill="#FFFFFF"></path>
        <path d="M93.84,53.61h-15.57v15.57h15.57V53.61z" fill="#FFFFFF"></path>
    </g>
</svg> 