<?xml version="1.0" encoding="UTF-8"?>
<svg width="256px" height="256px" viewBox="0 0 256 256" version="1.1" xmlns="http://www.w3.org/2000/svg" xmlns:xlink="http://www.w3.org/1999/xlink" preserveAspectRatio="xMidYMid">
    <g>
        <path d="M251.172245,116.593517 L139.398782,4.82038 C132.966254,-1.60979946 122.130591,-1.60979946 115.682106,4.82038 L92.8753863,27.6255962 L122.317995,57.0682105 C129.16041,55.1742267 137.005593,56.9565533 142.460425,62.4113769 C147.940536,67.8996251 149.711213,75.8230163 147.773417,82.6961735 L176.263766,111.186521 C183.14163,109.248726 191.068195,111.006986 196.545042,116.493635 C203.895063,123.843656 203.895063,135.599331 196.545042,142.949351 C189.195022,150.299371 177.439347,150.299371 170.089327,142.949351 C164.159738,137.019762 162.515359,128.375902 165.290396,121.108618 L138.590333,94.4085554 L138.590333,172.323121 C140.651603,173.342379 142.572878,174.695131 144.205324,176.327577 C151.555344,183.677598 151.555344,195.433273 144.205324,202.783293 C136.855304,210.133313 125.099628,210.133313 117.749608,202.783293 C110.399588,195.433273 110.399588,183.677598 117.749608,176.327577 C119.73686,174.340325 122.097095,172.879674 124.677294,172.061738 L124.677294,93.0657534 C122.102879,92.2478632 119.747097,90.7912155 117.749608,88.793727 C112.307851,83.3519701 110.563305,75.085133 113.026806,68.0660764 L84.0614748,39.1007496 L4.83125614,118.330917 C-1.60991284,124.772049 -1.60991284,135.607712 4.83125614,142.049196 L116.604717,253.817334 C123.037245,260.247513 133.872908,260.247513 140.321394,253.817334 L251.172245,142.966482 C257.60481,136.525198 257.60481,125.689535 251.172245,119.242022" fill="#DE4C36"></path>
    </g>
</svg> 