<?xml version="1.0" encoding="UTF-8"?>
<svg width="256px" height="256px" viewBox="0 0 256 256" version="1.1" xmlns="http://www.w3.org/2000/svg" xmlns:xlink="http://www.w3.org/1999/xlink" preserveAspectRatio="xMidYMid">
    <g>
        <path d="M82.5539491,69.3517206 L74.0739911,86.8368107 L65.8305345,69.3517206 L82.5539491,69.3517206 L82.5539491,69.3517206 Z M143.561705,26.2793518 C125.693133,8.40577538 96.4020753,0.128451266 76.9523353,13.1188117 C57.5091682,26.1058557 55.4198546,54.7529212 72.3602792,72.2109326 C89.3047022,89.6751664 119.25042,100.715638 138.472742,88.5187108 C157.700967,76.3169553 161.425485,44.1427569 143.561705,26.2793518 L143.561705,26.2793518 Z" fill="#0074BD"></path>
        <path d="M233.270254,189.892607 C233.270254,189.892607 209.858299,228.060046 122.589421,229.996921 C35.3243483,231.927913 33.0139284,204.1433 33.0139284,204.1433 C33.0139284,204.1433 23.5242015,188.636132 53.2137136,187.217692 C82.9061868,185.787462 95.4650474,196.194988 122.596002,200.489266 C149.720119,204.783545 192.033805,189.892607 233.270254,189.892607 L233.270254,189.892607 Z" fill="#EA2D2E"></path>
        <path d="M88.9008873,0.000457727891 C88.9008873,0.000457727891 37.7473058,13.1947445 83.5602753,47.4985738 C129.369916,81.8058764 105.507295,100.765704 88.9008873,121.521742 C61.4570278,113.093459 40.536007,99.8569634 27.7953035,83.7470067 C12.2585221,64.0346002 115.466619,-28.7908097 88.9008873,0.000457727891" fill="#0074BD"></path>
        <path d="M162.699237,215.946047 C162.699237,215.946047 176.280587,220.374744 176.280587,229.855054 C176.280587,239.33851 148.67941,248.792092 101.675266,248.792092 C54.6737436,248.792092 31.3831772,241.247325 31.3831772,229.855054 C31.3831772,218.470436 48.2314315,213.41286 62.5249071,210.328765 C62.5249071,210.328765 27.3286653,217.495248 27.3286653,230.239444 C27.3286653,242.976797 88.3102278,252.455638 147.397436,248.052991 C206.487523,243.646698 212.410069,224.9452 162.699237,215.946047" fill="#EA2D2E"></path>
        <path d="M221.57839,156.44893 L156.92382,156.176291 C156.92382,156.176291 166.424404,174.699074 199.901831,177.21794 C199.901831,177.21794 212.620874,177.236023 222.19292,174.465789 L222.19292,192.454695 C222.19292,192.454695 201.875643,201.511273 163.014939,200.101325 C124.16038,198.683505 114.336922,184.185747 108.914019,177.961471 C103.507481,171.730358 94.8149142,154.740261 94.8149142,134.990306 C94.8149142,115.242478 103.225267,100.074667 115.320407,88.6840468 C127.402807,77.2884834 148.928866,70.5768384 185.25678,74.1579366 C221.619993,77.7441006 212.819971,113.477645 212.819971,113.477645 L186.02548,113.765893 C186.02548,113.765893 188.203526,88.7683391 153.930508,92.8984318 C119.665215,97.0345824 119.314316,129.100755 119.314316,133.532218 C119.314316,139.466335 119.876811,169.055054 153.939217,168.538505 C188.001622,168.016063 221.57839,156.44893 221.57839,156.44893" fill="#EA2D2E"></path>
    </g>
</svg> 