<?xml version="1.0" encoding="UTF-8"?>
<svg width="256px" height="256px" viewBox="0 0 256 256" version="1.1" xmlns="http://www.w3.org/2000/svg" xmlns:xlink="http://www.w3.org/1999/xlink" preserveAspectRatio="xMidYMid">
    <g>
        <path d="M202.178,70.5066 C185.302,30.702 146.384,13.3 144.835,10.0093 C142.335,5.73933 139.878,0.526 137.246,0 C137.246,0 136.554,3.25733 128.122,5.569 C119.69,7.87733 83.493,32.0853 72.435,72.522 C61.377,112.959 91.719,145.969 97.242,150.076 C101.381,153.094 107.845,153.126 111.747,158.487 C115.082,163.97 115.048,176.068 115.048,176.068 L120.303,173.952 C120.303,173.952 120.436,160.082 119.388,156.376 C118.619,153.666 116.693,152.184 115.295,150.465 C113.529,148.333 112.024,146.271 112.024,142.876 C112.024,136.19 115.374,129.387 115.374,115.888 C115.374,102.389 110.32,90.7853 112.645,72.9946 C114.97,55.2066 122.562,47.1986 124.135,45.04 C125.716,42.8866 137.708,31.899 128.344,25.9466 C125.127,24.0866 134.29,26.3626 141.837,41.9946 C145.58,49.5866 147.32,52.724 148.56,65.792 C149.8,78.8626 146.46,89.992 146.46,110.859 C146.46,131.726 152.395,135.478 153.16,141.931 C153.924,148.384 152.867,152.793 155.457,154.327 C158.047,155.862 162.646,154.564 163.994,152.793 C165.341,151.023 164.988,145.928 166.435,143.835 C167.881,141.741 171.479,140.275 172.425,133.334 C173.371,126.392 172.834,120.684 172.834,105.595 C172.834,90.506 169.9,80.5293 172.834,69.0066 C174.846,61.2373 184.099,56.2586 184.099,56.2586 C184.099,56.2586 197.33,75.412 201.914,92.9946 C206.499,110.577 199.629,136.321 198.263,140.961 C196.897,145.601 191.758,155.311 198.51,160.368 C205.261,165.425 219.455,163.065 223.487,156.376 C227.518,149.687 226.519,140.297 227.984,138.104 C229.448,135.911 232.028,136.057 232.876,132.238 C233.724,128.42 233.876,124.822 233.876,108.596 C233.876,92.3693 219.052,40.024 202.178,70.5066" fill="#7FBB41"></path>
    </g>
</svg> 