<?xml version="1.0" encoding="UTF-8"?>
<svg width="256px" height="256px" viewBox="0 0 256 256" version="1.1" xmlns="http://www.w3.org/2000/svg" xmlns:xlink="http://www.w3.org/1999/xlink" preserveAspectRatio="xMidYMid">
    <g>
        <path d="M235.648,194.212 C221.729,193.864 210.942,195.229 201.750,198.692 C199.225,199.638 195.348,199.638 195.000,202.861 C196.644,204.455 196.773,207.033 198.070,209.089 C200.595,213.386 205.125,219.161 209.213,222.384 C213.651,225.957 218.176,229.530 222.962,232.580 C230.727,237.404 239.396,240.105 246.986,244.923 C251.424,247.799 255.862,251.372 260.299,254.423 C262.476,255.890 263.945,258.244 266.644,259.016 L266.644,258.418 C265.173,256.650 264.651,254.247 263.180,252.304 C260.994,250.362 258.807,248.768 256.621,246.825 C247.777,236.829 236.990,228.804 225.506,222.682 C216.142,217.857 197.070,210.701 193.680,200.705 C193.680,200.705 193.506,200.531 193.332,200.357 C198.766,199.935 205.125,198.169 210.039,196.748 C218.003,194.459 225.158,195.057 233.461,192.834 C237.202,191.762 240.942,190.167 244.683,188.747 L244.683,186.804 C241.116,183.231 238.672,178.581 235.104,175.008 C226.265,166.983 216.664,159.303 206.715,152.945 C201.229,149.372 193.332,147.255 187.323,144.205 C184.789,143.085 180.874,142.487 179.403,140.544 C175.836,136.273 173.650,130.851 171.115,125.602 C165.974,115.258 160.833,103.518 156.918,92.477 C154.558,85.669 153.087,78.862 150.031,72.353 C134.042,41.425 115.825,24.876 84.148,8.778 C78.311,5.904 71.428,4.832 64.545,3.061 C60.282,2.983 56.018,2.807 51.755,2.685 C48.709,1.565 45.664,0.074 42.967,0 C33.545,1.565 23.426,5.138 15.355,8.711 C10.918,10.654 5.959,12.173 1.696,14.638 L1.696,15.236 C4.393,15.236 7.091,14.937 9.440,15.534 C13.180,17.477 16.746,16.580 20.660,17.776 C22.152,18.949 23.644,20.668 24.788,22.087 L28.702,20.967 C36.069,24.540 42.793,30.258 48.454,35.508 C51.325,38.035 53.336,41.308 55.522,44.358 C58.220,49.009 60.918,53.958 63.442,58.908 C64.914,61.784 66.210,64.984 68.223,67.511 C69.520,69.105 71.858,69.628 72.532,72.353 C68.919,77.354 68.571,85.081 66.558,91.590 C57.883,116.604 60.918,148.328 72.880,165.522 C76.448,170.871 83.852,181.988 92.870,177.124 C100.411,173.027 97.714,162.810 99.882,154.188 C100.408,152.419 100.057,151.049 101.005,149.977 L101.005,150.226 C103.702,155.773 106.400,161.022 108.924,166.570 C115.459,176.566 128.414,187.009 138.711,193.342 C143.496,196.392 147.237,202.635 153.261,204.055 L153.261,203.457 L152.913,203.457 C151.441,201.290 149.103,200.293 147.110,198.750 C142.325,194.305 136.988,188.981 133.421,184.337 C120.813,168.422 109.968,150.604 100.430,131.889 C96.342,123.191 92.949,113.968 89.730,105.270 C88.606,102.394 88.606,98.821 86.420,97.176 C83.722,101.777 79.109,105.349 76.935,110.599 C72.872,119.819 72.349,131.039 71.478,142.934 C70.955,143.160 71.130,142.934 70.781,143.160 C64.770,141.740 62.942,134.409 60.756,128.982 C54.050,111.794 52.927,85.306 60.059,65.490 C61.878,60.764 70.781,45.697 68.595,41.176 C67.470,37.080 63.729,34.553 61.195,31.352 C58.313,27.429 55.258,22.553 53.264,18.165 C48.653,8.169 46.815,3.759 56.764,0 C58.932,3.759 63.035,1.232 65.915,0 C72.175,2.834 77.839,1.916 83.678,3.759 C95.509,7.156 105.807,12.756 115.230,18.655 C142.847,33.945 164.763,57.561 178.243,86.951 C180.255,91.301 181.028,95.247 182.848,99.771 C186.415,109.767 190.853,120.161 194.421,129.932 C197.989,139.628 201.380,149.499 206.513,158.073 C209.211,162.343 219.682,164.435 224.467,166.527 C227.861,168.122 233.348,169.392 236.219,171.335 C241.724,175.134 247.228,179.107 252.384,183.227 C254.919,185.520 262.999,190.421 263.348,194.212 L235.648,194.212 L235.648,194.212 Z" fill="#00546B"></path>
        <path d="M58.104,43.496 C54.188,43.669 51.317,44.267 48.967,45.690 C48.967,45.864 48.967,46.037 48.967,46.211 L49.315,46.211 C50.786,48.853 53.309,50.447 55.135,52.740 C56.606,55.438 58.078,58.139 59.549,60.837 C59.723,60.663 59.898,60.489 60.072,60.313 C63.813,57.440 65.459,52.666 65.285,46.459 C64.336,45.513 64.162,44.393 63.291,43.273 C61.820,41.679 59.575,40.957 58.104,43.496 L58.104,43.496 Z" fill="#00546B"></path>
    </g>
</svg> 