<?xml version="1.0" encoding="UTF-8" standalone="no"?>
<svg width="256px" height="256px" viewBox="0 0 256 256" version="1.1" xmlns="http://www.w3.org/2000/svg" xmlns:xlink="http://www.w3.org/1999/xlink" preserveAspectRatio="xMidYMid">
  <g>
    <rect fill="#005CA9" x="0" y="0" width="256" height="256" rx="25"></rect>
    <path d="M43.4,97.6 C43.4,86.4 50.8,79 62,79 C69.4,79 74.6,82.8 77.2,88.6 L70.6,92.4 C69.2,89 66.4,86.8 62,86.8 C54.8,86.8 51.8,91.8 51.8,97.6 C51.8,103.4 54.8,108.4 62,108.4 C66.4,108.4 69.2,106 70.8,102.6 L77.4,106.2 C74.8,112.2 69.4,116.2 62,116.2 C50.8,116.2 43.4,108.8 43.4,97.6 Z" fill="#FFFFFF"></path>
    <path d="M80.6,97.6 C80.6,86.4 88.2,79 99.4,79 C110.6,79 118,86.4 118,97.6 C118,108.8 110.6,116.2 99.4,116.2 C88.2,116.2 80.6,108.8 80.6,97.6 Z M109.6,97.6 C109.6,91.6 106.2,86.8 99.4,86.8 C92.6,86.8 89,91.6 89,97.6 C89,103.6 92.6,108.4 99.4,108.4 C106.2,108.4 109.6,103.6 109.6,97.6 Z" fill="#FFFFFF"></path>
    <path d="M146.8,105.8 C146.8,111.8 141.4,116.2 134.4,116.2 C127.4,116.2 122,111.8 122,105.8 L122,79.8 L130.4,79.8 L130.4,105.4 C130.4,107.8 132,108.8 134.4,108.8 C136.8,108.8 138.4,107.8 138.4,105.4 L138.4,79.8 L146.8,79.8 L146.8,105.8 Z" fill="#FFFFFF"></path>
    <path d="M169,79.8 L177.4,79.8 L177.4,115.4 L169,115.4 L169,79.8 Z" fill="#FFFFFF"></path>
    <path d="M41.6,157.2 L41.6,178.4 L33.2,178.4 L33.2,142.8 L41.6,142.8 L57.4,164 L57.4,142.8 L65.8,142.8 L65.8,178.4 L57.4,178.4 L41.6,157.2 Z" fill="#FFFFFF"></path>
    <path d="M96.6,150.6 L96.6,178.4 L88.2,178.4 L88.2,150.6 L78.6,150.6 L78.6,142.8 L106.2,142.8 L106.2,150.6 L96.6,150.6 Z" fill="#FFFFFF"></path>
    <path d="M138.6,150.6 L138.6,156.6 L149.8,156.6 L149.8,164.4 L138.6,164.4 L138.6,170.6 L151.4,170.6 L151.4,178.4 L130.2,178.4 L130.2,142.8 L151.4,142.8 L151.4,150.6 L138.6,150.6 Z" fill="#FFFFFF"></path>
    <path d="M182.6,169.8 L197.4,169.8 L197.4,178.4 L174.2,178.4 L174.2,142.8 L182.6,142.8 L182.6,169.8 Z" fill="#FFFFFF"></path>
    <path d="M223.8,169.8 L223.8,178.4 L201.6,178.4 L201.6,142.8 L223.8,142.8 L223.8,151.4 L210,151.4 L210,156.4 L222,156.4 L222,165 L210,165 L210,169.8 L223.8,169.8 Z" fill="#FFFFFF"></path>
  </g>
</svg> 