<?xml version="1.0" encoding="UTF-8" standalone="no"?>
<svg width="256px" height="256px" viewBox="0 0 256 256" version="1.1" xmlns="http://www.w3.org/2000/svg" xmlns:xlink="http://www.w3.org/1999/xlink" preserveAspectRatio="xMidYMid">
    <g>
        <path d="M128,0 C57.308,0 0,57.308 0,128 C0,198.692 57.308,256 128,256 C198.692,256 256,198.692 256,128 C256,57.308 198.692,0 128,0 Z M128,249.8453 C60.7827,249.8453 6.1547,195.2173 6.1547,128 C6.1547,60.7827 60.7827,6.1547 128,6.1547 C195.2173,6.1547 249.8453,60.7827 249.8453,128 C249.8453,195.2173 195.2173,249.8453 128,249.8453 Z M39.0480,128 L86.312,220.616 C57.8667,202.0267 39.0480,167.3387 39.0480,128 Z M128,216.9493 C113.7067,216.9493 99.996,213.9107 87.6267,208.4427 L116.176,135.7333 L146.0053,209.848 C146.0587,209.9813 146.1173,210.1067 146.1787,210.2293 C140.4373,214.464 134.3733,216.9493 128,216.9493 Z M148.2347,125.7653 C153.048,124.0587 158.1173,122.9067 158.1173,117.2533 C158.1173,112.2107 154.2773,108.992 149.8453,108.992 C148.2347,108.992 146.7387,109.3707 145.2987,110.0213 L121.5627,162.24 L96.4747,110.128 C94.976,109.344 93.2613,108.992 91.6053,108.992 C87.1733,108.992 83.472,112.2107 83.472,117.2533 C83.472,122.9067 88.5413,124.0587 93.3547,125.7653 L102.5387,128.592 L93.0827,150.24 L69.1093,128 C75.9787,100.768 99.7867,81.0507 128,81.0507 C156.2133,81.0507 180.0213,100.768 186.8907,128 L148.2347,125.7653 Z M171.9787,130.8267 L205.1733,138.1653 C207.2107,144.2827 208.3093,150.7893 208.3093,157.5733 C208.3093,182.3733 194.64,204.0693 174.4,215.2053 L171.9787,130.8267 Z" fill="#21759B"></path>
        <path d="M128,128 C128,149.697 128,171.394 128,193.091 C139.962,193.091 151.924,193.091 163.887,193.091 C159.725,166.53 155.562,139.97 151.4,113.409 C143.6,113.409 135.8,113.409 128,113.409 C128,118.273 128,123.136 128,128 Z" fill="#FFFFFF"></path>
        <path d="M99.629,112.766 C93.41,112.997 87.866,112.273 83.513,110.348 C73.979,106.118 66.858,96.657 66.858,84.5 C66.858,70.466 76.954,58.985 90.3,55.744 C91.471,55.512 92.672,55.333 93.894,55.22 C97.184,54.96 99.989,54.95 103.679,55.609 C103.679,62.953 103.679,70.297 103.679,77.64 C99.979,77.64 96.279,77.639 92.579,77.641 C92.577,77.954 92.572,78.554 92.569,78.868 C92.566,80.082 92.564,81.295 92.562,82.509 C96.601,82.509 100.64,82.508 104.679,82.509 C104.679,87.359 104.679,92.208 104.679,97.058 C100.64,97.058 96.601,97.058 92.562,97.058 C92.563,119.627 92.562,142.196 92.562,164.766 C93.629,164.764 94.696,164.765 95.764,164.766 C96.367,164.766 96.97,164.766 97.573,164.766 C104.075,164.766 110.577,164.766 117.079,164.766 C117.079,142.196 117.08,119.627 117.079,97.058 C114.389,97.058 111.699,97.058 109.009,97.058 C109.01,92.208 109.01,87.359 109.009,82.509 C114.389,82.509 119.769,82.508 125.149,82.509 C125.149,80.223 125.149,77.936 125.149,75.649 C125.149,70.323 125.149,64.997 125.149,59.67 C125.149,59.647 125.149,59.624 125.149,59.6 C116.609,56.4 105.849,55.29 94.888,57.65 C83.927,60.01 73.767,70.24 73.758,83.87 C73.75,95.54 81.609,105.9 91.349,108.87 C101.089,111.83 112.769,110.01 124.448,107.07 C124.449,130.85 124.45,154.63 124.449,178.41 C124.449,181.82 124.449,185.23 124.449,188.64 C112.879,188.64 101.309,188.64 89.739,188.64 C103.313,208.11 131.483,215.66 153.813,207.05 C176.133,198.44 190.283,173.5 187.184,148.87 C184.084,124.23 163.825,102.55 138.629,100.58 C138.628,89.666 138.628,78.752 138.629,67.838 C138.63,66.909 138.63,65.98 138.629,65.05 C147.869,65.05 157.109,65.05 166.349,65.05 C166.349,65.073 166.349,65.096 166.349,65.12 C170.669,92.477 174.989,119.833 179.308,147.19 C179.308,158.53 179.308,169.87 179.308,181.21 C179.308,185.59 179.308,189.97 179.308,194.35 C182.788,194.35 186.268,194.35 189.748,194.35 C189.748,155.783 189.748,117.217 189.748,78.65 C189.748,78.43 189.748,78.21 189.748,77.99 C194.848,101.357 189.718,127.743 175.049,146.44 C160.379,165.137 136.809,176.543 111.947,174.08 C112.027,177.037 112.036,179.913 112.029,182.88 C140.009,187.42 170.139,176.54 187.029,152.36 C205.839,125.49 205.839,85.34 186.939,58.55 C168.039,31.76 131.919,20.88 101.489,33.9 C71.0585,46.93 52.1585,80.36 55.9485,113.41 C56.8485,119.94 58.6185,126.41 61.6385,132.55 C64.6585,138.69 68.8985,144.55 74.1785,149.26 C79.4585,153.97 85.6785,157.66 92.5685,159.82 C92.5685,161.47 92.5785,163.12 92.5685,164.77 C67.7085,158.72 49.9285,133.91 47.6285,108.22 C45.2085,80.38 63.1885,52.61 88.6985,39.57 C114.209,26.53 147.259,29.93 169.539,47.61 C191.819,65.29 201.729,94.97 194.169,123.23 C186.609,151.49 163.479,173.63 134.919,179.81 C134.919,183.77 134.919,187.73 134.919,191.69 C134.919,192.76 134.919,193.83 134.919,194.9 C169.819,189.06 198.979,161.38 205.339,126.26 C211.699,91.14 195.809,54.16 166.349,34.09 C136.879,14.02 95.9785,14.02 66.5085,34.09 C37.0385,54.16 21.1485,91.14 27.5085,126.26 C33.8685,161.38 63.0285,189.06 97.9285,194.9 C97.9285,193.83 97.9285,192.76 97.9285,191.69 C98.4585,165.38 97.9185,139.08 99.6185,112.78 L99.629,112.766 Z" fill="#FFFFFF"></path>
    </g>
</svg> 