<svg xmlns="http://www.w3.org/2000/svg" xmlns:xlink="http://www.w3.org/1999/xlink" width="220" height="40" viewBox="0 0 220 40">
  <defs>
    <linearGradient id="linear-gradient" x1="0.163" y1="0.837" x2="0.994" y2="0.006" gradientUnits="objectBoundingBox">
      <stop offset="0" stop-color="#a7a9ac"/>
      <stop offset="1" stop-color="#f3f3f4"/>
    </linearGradient>
    <linearGradient id="linear-gradient-2" x1="0.167" y1="0.834" x2="0.834" y2="0.167" xlink:href="#linear-gradient"/>
    <linearGradient id="linear-gradient-3" x1="0.25" y1="0.75" x2="0.75" y2="0.249" xlink:href="#linear-gradient"/>
  </defs>
  <g id="Fiera-Capital_Horizontal_Colour_Spot-01" transform="translate(-32.43 -94.32)">
    <g id="Group_2071" data-name="Group 2071" transform="translate(79.198 104.708)">
      <g id="Group_2069" data-name="Group 2069" transform="translate(71.54)">
        <path id="Path_1296" data-name="Path 1296" d="M130.88,118.766c-.1.483-.219.614-.849.849a17.738,17.738,0,0,1-5.823,1.039,10.98,10.98,0,0,1-6.744-2.092,9.3,9.3,0,0,1-3.394-7.461,9.443,9.443,0,0,1,3.745-7.681,11.613,11.613,0,0,1,7.008-1.99,14.013,14.013,0,0,1,5.077.951c.688.293.936.527.936,1.1V106.8h-.746a6.292,6.292,0,0,0-.658-1.946,5.341,5.341,0,0,0-4.7-2.414c-4.038,0-6.569,3.219-6.569,8.529a10.235,10.235,0,0,0,2.048,6.671,5.858,5.858,0,0,0,4.521,1.99,6.216,6.216,0,0,0,4.886-2.18,10.061,10.061,0,0,0,1.3-2.092h.717Z" transform="translate(-114.07 -101.43)" fill="#a7a9ac"/>
        <path id="Path_1297" data-name="Path 1297" d="M151.1,103.718h-8.28v.688l.439.044c1.126.117,1.434.176,1.595.541a4.316,4.316,0,0,1,.1,1.361v10.4a4.25,4.25,0,0,1-.1,1.361c-.176.336-.468.468-1.595.541l-.161.015c-1.156-.176-1.668-.775-2.75-3.526l-4.652-11.7h-1.653l-5.091,12.172c-.98,2.355-1.653,3.028-2.985,3.087v.688h4.843V118.7c-.878-.044-1.258-.41-1.258-1.039a1.75,1.75,0,0,1,.117-.629l1.009-2.648h5.94l1.009,2.648a1.978,1.978,0,0,1,.2.761c0,.6-.366.849-1.375.892v.688h14.118v-.717l-.439-.029c-1.156-.073-1.434-.2-1.595-.541a4.183,4.183,0,0,1-.1-1.361V104.537h1.331c2.238,0,3.467,1.258,3.467,3.584a3.916,3.916,0,0,1-1.3,3.16,3.7,3.7,0,0,1-2.458.8v.556a13.6,13.6,0,0,0,2.707-.161c3-.541,4.784-2.268,4.784-4.682C156.971,105.2,154.879,103.718,151.1,103.718Zm-20,9.685,2.75-6.627,2.4,6.627Z" transform="translate(-108.56 -100.499)" fill="#a7a9ac"/>
        <path id="Path_1298" data-name="Path 1298" d="M147.54,119.313v-.688c2.092-.132,2.136-.2,2.136-1.946v-10.4c0-1.77-.044-1.843-2.136-1.975v-.673h7.783v.673c-2.121.132-2.136.307-2.136,1.975v10.4c0,1.756.044,1.814,2.136,1.946v.688Z" transform="translate(-98.574 -100.411)" fill="#a7a9ac"/>
        <path id="Path_1299" data-name="Path 1299" d="M168.771,107.063c-.644-.966-.746-1.141-.98-1.434a2.987,2.987,0,0,0-2.56-1.141h-2.077v12.187c0,1.756.044,1.814,2.136,1.946v.688h-7.783v-.688c2.092-.132,2.165-.2,2.165-1.946V104.489h-2.063a3.012,3.012,0,0,0-2.633,1.214,11.573,11.573,0,0,0-.907,1.361h-.688l.688-3.423h14.7l.658,3.423Z" transform="translate(-95.87 -100.407)" fill="#a7a9ac"/>
        <path id="Path_1300" data-name="Path 1300" d="M192.62,115.353c-1.229,2.648-2.136,3.2-5,3.2-2.048,0-2.531-.38-2.531-1.843V106.356c0-1.77.029-1.843,2.121-1.975v-.673h-7.783v.673c2.092.132,2.136.2,2.136,1.975v10.4c0,1.639-.059,1.8-1.77,1.916-1.2-.161-1.712-.746-2.809-3.54l-4.652-11.7h-1.653L165.585,115.6c-.995,2.355-1.653,3.028-2.984,3.087v.688h4.857v-.688c-.892-.044-1.258-.41-1.258-1.039a1.75,1.75,0,0,1,.117-.629l1.009-2.648h5.94l1.009,2.648a2.214,2.214,0,0,1,.19.761c0,.6-.366.849-1.375.892v.688h19.458l.746-4.052h-.673Zm-24.915-1.946,2.765-6.627,2.385,6.627Z" transform="translate(-91.601 -100.504)" fill="#a7a9ac"/>
      </g>
      <g id="Group_2070" data-name="Group 2070" transform="translate(0 0.205)">
        <path id="Path_1301" data-name="Path 1301" d="M71.256,110.6H74.05c1.858,0,2.648-.673,2.707-2.326h.761v5.72h-.761c-.088-1.58-.731-2.546-2.707-2.546H71.256v5.486c0,2.487-.117,2.355,2.531,2.648v.688H65.17v-.688c2.648-.307,2.531-.161,2.531-2.648V104.906c0-2.472.117-2.355-2.531-2.633v-.7H79.024v4.3h-.761c-.38-1.975-.878-3.453-3-3.453H71.271V110.6Z" transform="translate(-65.17 -101.57)" fill="#005695"/>
        <path id="Path_1302" data-name="Path 1302" d="M81.138,116.674a5.358,5.358,0,0,0,.1,1.361c.1.41.936.512,2.048.585v.688H75.52v-.688c1.112-.073,1.946-.176,2.048-.585a5.359,5.359,0,0,0,.1-1.361V106.258a5.3,5.3,0,0,0-.1-1.361c-.1-.41-.936-.512-2.048-.585v-.7h7.768v.7c-1.112.059-1.946.176-2.048.585a5.358,5.358,0,0,0-.1,1.361Z" transform="translate(-60.378 -100.626)" fill="#005695"/>
        <path id="Path_1303" data-name="Path 1303" d="M82.12,118.635c1.083-.073,1.946-.176,2.048-.585a5.421,5.421,0,0,0,.1-1.375V106.258a5.3,5.3,0,0,0-.1-1.361c-.1-.41-.966-.512-2.048-.585v-.7H94.248v3.614H93.59c-.38-1.595-.966-2.78-2.692-2.78H87.753v6.291H89.8a1.971,1.971,0,0,0,2.224-2.151H92.7v5.223h-.673c-.059-1.229-.571-2.253-2.224-2.253H87.753v5.091c0,1.712.922,1.843,2.941,1.843,3.131,0,3.6-1.244,4.638-3.233H96l-.746,4.067H82.12v-.688Z" transform="translate(-57.322 -100.626)" fill="#005695"/>
        <path id="Path_1304" data-name="Path 1304" d="M121.267,116.63c-.907-2.121-3.833-9.407-5.3-13.05h-1.58c-2.048,4.872-5.018,12.055-5.9,13.708a2.576,2.576,0,0,1-1.287,1.17,22.132,22.132,0,0,1-2.487-2.97l-2.516-3.526a4.749,4.749,0,0,0,3.657-4.374c0-2.736-2.472-3.979-5.281-3.979H91.89v.7c1.083.059,1.946.176,2.048.585a5.359,5.359,0,0,1,.1,1.361v10.416a5.541,5.541,0,0,1-.1,1.375c-.1.41-.966.512-2.048.585v.688h7.783v-.688c-1.083-.073-1.946-.176-2.048-.585a5.421,5.421,0,0,1-.1-1.375V104.487h1.726c1.7,0,2.911.834,2.911,3.248,0,2.121-.746,3.789-2.911,3.789h-.936c1.946,3.1,4.491,7.8,5.94,7.8h6.876v-.688c-1.126,0-1.463-.688-1.126-1.609l.966-2.633h5.954l.995,2.589c.4.966.176,1.653-1.17,1.653v.688h6.788v-.688C122.481,118.649,121.764,117.8,121.267,116.63Zm-9.846-3.219,2.619-6.452h.044l2.414,6.452Z" transform="translate(-52.799 -100.639)" fill="#005695"/>
      </g>
    </g>
    <g id="Group_2072" data-name="Group 2072" transform="translate(32.43 94.32)">
      <path id="Path_1305" data-name="Path 1305" d="M46.1,105.544l6.671,6.664L46.1,118.888l6.671,6.65,13.357-13.329L52.786,98.88Z" transform="translate(-26.101 -92.209)" fill="#005695"/>
      <path id="Path_1306" data-name="Path 1306" d="M59.115,100.991,39.087,121l-6.657-6.657L52.444,94.32Z" transform="translate(-32.43 -94.32)" fill="url(#linear-gradient)"/>
      <path id="Path_1307" data-name="Path 1307" d="M56.994,110.111,43.651,123.454l-6.671-6.671L50.337,103.44Z" transform="translate(-30.323 -90.116)" fill="url(#linear-gradient-2)"/>
      <path id="Path_1308" data-name="Path 1308" d="M54.882,119.227,48.211,125.9l-6.671-6.671,6.671-6.657Z" transform="translate(-28.212 -85.898)" fill="url(#linear-gradient-3)"/>
    </g>
  </g>
</svg>
